<svg width="60" height="60" viewBox="0 0 60 60" fill="none" xmlns="http://www.w3.org/2000/svg">
<g id="cart_2696198 1">
<g id="chart">
<path id="Vector" d="M27.8623 48.75C27.8623 49.3063 27.6974 49.85 27.3883 50.3126C27.0793 50.7751 26.64 51.1356 26.1261 51.3484C25.6122 51.5613 25.0467 51.617 24.5011 51.5085C23.9555 51.4 23.4544 51.1321 23.0611 50.7388C22.6677 50.3454 22.3999 49.8443 22.2913 49.2987C22.1828 48.7531 22.2385 48.1876 22.4514 47.6737C22.6643 47.1598 23.0248 46.7205 23.4873 46.4115C23.9498 46.1025 24.4935 45.9375 25.0498 45.9375C25.7957 45.9375 26.5111 46.2338 27.0385 46.7613C27.566 47.2887 27.8623 48.0041 27.8623 48.75Z" fill="#B88B4A"/>
<path id="Vector_2" d="M46.3311 48.75C46.3311 49.3063 46.1661 49.85 45.8571 50.3126C45.548 50.7751 45.1088 51.1356 44.5949 51.3484C44.0809 51.5613 43.5154 51.617 42.9699 51.5085C42.4243 51.4 41.9232 51.1321 41.5298 50.7388C41.1365 50.3454 40.8686 49.8443 40.7601 49.2987C40.6516 48.7531 40.7073 48.1876 40.9201 47.6737C41.133 47.1598 41.4935 46.7205 41.956 46.4115C42.4185 46.1025 42.9623 45.9375 43.5186 45.9375C44.2645 45.9375 44.9798 46.2338 45.5073 46.7613C46.0347 47.2887 46.3311 48.0041 46.3311 48.75Z" fill="#B88B4A"/>
<path id="Vector_3" d="M45.3843 44.25H23.053C22.0964 44.2516 21.1697 43.916 20.4359 43.3022C19.7021 42.6884 19.2081 41.8357 19.0405 40.8938L15.6187 21.8813C15.5598 21.5509 15.574 21.2116 15.6603 20.8873C15.7466 20.563 15.903 20.2615 16.1184 20.0041C16.3338 19.7467 16.6029 19.5397 16.9069 19.3975C17.211 19.2554 17.5424 19.1815 17.878 19.1813H49.0968C49.7064 19.1812 50.3083 19.3178 50.8582 19.581C51.408 19.8442 51.8919 20.2274 52.2742 20.7023C52.6564 21.1772 52.9273 21.7317 53.067 22.3252C53.2067 22.9186 53.2115 23.5357 53.0812 24.1313L49.3312 41.0063C49.138 41.9141 48.6423 42.7294 47.9253 43.3187C47.2082 43.908 46.3123 44.2364 45.3843 44.25ZM18.4968 21.9938L21.8062 40.3969C21.8589 40.6891 22.0127 40.9534 22.2407 41.1436C22.4686 41.3338 22.7562 41.4379 23.053 41.4375H45.3843C45.6734 41.4396 45.9544 41.3419 46.1798 41.1608C46.4053 40.9798 46.5614 40.7265 46.6218 40.4438L50.3718 23.5688C50.4125 23.3838 50.4111 23.192 50.3678 23.0076C50.3245 22.8232 50.2404 22.6509 50.1216 22.5033C50.0029 22.3558 49.8525 22.2368 49.6816 22.1551C49.5107 22.0734 49.3237 22.0311 49.1343 22.0313L18.4968 21.9938Z" fill="#B88B4A"/>
<path id="Vector_4" d="M18.0844 28.9406C17.7589 28.9403 17.4436 28.827 17.1923 28.6201C16.9409 28.4133 16.7692 28.1256 16.7062 27.8063L14.2875 15.5438C14.2659 15.4379 14.2084 15.3427 14.1246 15.2744C14.0409 15.2061 13.9362 15.1687 13.8281 15.1688H8.20312C7.83016 15.1688 7.47248 15.0206 7.20876 14.7569C6.94503 14.4932 6.79688 14.1355 6.79688 13.7625C6.79688 13.3896 6.94503 13.0319 7.20876 12.7681C7.47248 12.5044 7.83016 12.3563 8.20312 12.3563H13.8281C14.5867 12.3588 15.3211 12.6233 15.9071 13.105C16.4931 13.5868 16.8946 14.2562 17.0437 15L19.4625 27.2625C19.5026 27.4662 19.4972 27.6762 19.4465 27.8775C19.3959 28.0788 19.3013 28.2664 19.1695 28.4269C19.0378 28.5873 18.8722 28.7166 18.6845 28.8054C18.4969 28.8942 18.292 28.9404 18.0844 28.9406Z" fill="#B88B4A"/>
</g>
</g>
</svg>
