<svg width="80" height="80" viewBox="0 0 80 80" fill="none" xmlns="http://www.w3.org/2000/svg">
<g id="Frame 44 1" clip-path="url(#clip0_36_47)">
<path id="Vector" d="M80 0H0V80H80V0Z" fill="#B88B4A"/>
<path id="Vector_2" fill-rule="evenodd" clip-rule="evenodd" d="M12.8 0H7.19995V3.2H3.99995H3.19995V4V76V76.8H3.99995H67.2V80H72.7999V76.8H76H76.7999V76V4V3.2H76H12.8V0ZM7.19995 4.8H4.79995V75.2H67.2V40.8H44V63.2H38.4V40.8V36V24.8L13.6 63.2H12.8H7.19995V4.8ZM72.7999 75.2V40.8V36V16.8H67.2V36H44V16.8H38.4H37.6L12.8 53.6V4.8H75.2V75.2H72.7999Z" fill="white"/>
</g>
<defs>
<clipPath id="clip0_36_47">
<rect width="80" height="80" fill="white"/>
</clipPath>
</defs>
</svg>
